<?xml version="1.0" encoding="UTF-8"?>
<svg xmlns="http://www.w3.org/2000/svg" xmlns:xlink="http://www.w3.org/1999/xlink" viewBox="0 0 100 100" version="1.1">
<g id="surface1">
<path d="M 12.679688 33.445312 C 12.613281 33.378906 12.53125 33.320312 12.453125 33.261719 C 12.398438 33.1875 12.34375 33.109375 12.269531 33.039062 L 9.851562 30.617188 C 8.96875 29.734375 7.539062 29.734375 6.660156 30.617188 C 5.773438 31.5 5.773438 32.929688 6.660156 33.8125 L 7.503906 34.65625 L 4.902344 37.257812 L 4.054688 36.414062 C 3.175781 35.53125 1.742188 35.53125 0.859375 36.414062 C -0.0195312 37.296875 -0.0195312 38.726562 0.859375 39.609375 L 3.277344 42.027344 C 3.410156 42.160156 3.554688 42.261719 3.707031 42.355469 C 3.714844 42.367188 3.726562 42.382812 3.738281 42.394531 C 4.835938 43.492188 6.609375 43.492188 7.710938 42.394531 L 12.683594 37.414062 C 13.78125 36.320312 13.78125 34.539062 12.679688 33.445312 Z M 12.679688 33.445312 "/>
<path d="M 47.386719 92.359375 C 48.277344 91.902344 48.886719 90.992188 48.886719 89.917969 C 48.886719 88.722656 48.117188 87.710938 47.046875 87.332031 C 48.117188 86.957031 48.886719 85.945312 48.886719 84.746094 C 48.886719 83.539062 48.105469 82.527344 47.023438 82.15625 C 48.105469 81.785156 48.886719 80.773438 48.886719 79.5625 C 48.886719 78.042969 47.652344 76.8125 46.132812 76.8125 L 44.375 76.8125 C 42.855469 76.8125 41.617188 78.050781 41.617188 79.5625 C 41.617188 80.773438 42.398438 81.785156 43.484375 82.15625 C 42.398438 82.527344 41.617188 83.539062 41.617188 84.746094 C 41.617188 85.945312 42.390625 86.957031 43.460938 87.332031 C 42.390625 87.710938 41.617188 88.722656 41.617188 89.917969 C 41.617188 90.828125 42.070312 91.628906 42.75 92.132812 C 39.269531 93.003906 36.691406 96.144531 36.691406 99.890625 C 48.652344 99.890625 44.5625 99.890625 52.699219 99.890625 C 52.695312 96.414062 50.480469 93.464844 47.386719 92.359375 Z M 47.386719 92.359375 "/>
<path d="M 67.855469 92.242188 C 68.539062 91.742188 68.984375 90.945312 68.984375 90.027344 C 68.984375 88.832031 68.210938 87.824219 67.140625 87.445312 C 68.214844 87.070312 68.984375 86.058594 68.984375 84.863281 C 68.984375 83.65625 68.203125 82.644531 67.117188 82.269531 C 68.203125 81.898438 68.984375 80.882812 68.984375 79.679688 C 68.984375 78.15625 67.75 76.921875 66.226562 76.921875 L 64.472656 76.921875 C 62.953125 76.921875 61.71875 78.15625 61.71875 79.679688 C 61.71875 80.882812 62.5 81.898438 63.582031 82.269531 C 62.5 82.644531 61.71875 83.65625 61.71875 84.863281 C 61.71875 86.058594 62.492188 87.070312 63.554688 87.445312 C 62.492188 87.824219 61.71875 88.832031 61.71875 90.027344 C 61.71875 91.097656 62.332031 92.011719 63.21875 92.472656 C 60.128906 93.578125 57.910156 96.527344 57.910156 100 C 66.046875 100 61.957031 100 73.917969 100 C 73.921875 96.25 71.339844 93.109375 67.855469 92.242188 Z M 67.855469 92.242188 "/>
<path d="M 99.40625 63.992188 L 97.472656 61.164062 C 97.371094 61.011719 97.246094 60.882812 97.117188 60.761719 C 97.109375 60.75 97.097656 60.738281 97.089844 60.71875 C 96.238281 59.472656 94.546875 59.132812 93.273438 59.945312 C 93.199219 59.71875 93.097656 59.496094 92.957031 59.296875 C 92.367188 58.433594 91.382812 58.023438 90.414062 58.101562 C 90.84375 57.226562 90.8125 56.160156 90.226562 55.304688 C 89.53125 54.296875 88.308594 53.894531 87.191406 54.195312 C 87.707031 53.296875 87.710938 52.148438 87.085938 51.234375 C 86.492188 50.363281 85.480469 49.945312 84.5 50.050781 C 84.820312 49.214844 84.746094 48.246094 84.199219 47.453125 C 83.613281 46.59375 82.628906 46.179688 81.664062 46.261719 C 82.089844 45.386719 82.058594 44.320312 81.46875 43.460938 C 80.601562 42.191406 78.863281 41.867188 77.59375 42.738281 L 76.117188 43.746094 C 74.851562 44.617188 74.519531 46.351562 75.394531 47.625 C 75.980469 48.484375 76.972656 48.898438 77.933594 48.820312 C 77.507812 49.695312 77.539062 50.761719 78.128906 51.617188 C 78.722656 52.492188 79.730469 52.90625 80.714844 52.808594 C 80.390625 53.640625 80.46875 54.609375 81.011719 55.402344 C 81.699219 56.40625 82.929688 56.804688 84.042969 56.507812 C 83.523438 57.410156 83.523438 58.558594 84.148438 59.472656 C 84.742188 60.328125 85.726562 60.742188 86.695312 60.664062 C 86.261719 61.53125 86.292969 62.601562 86.886719 63.460938 C 87.023438 63.664062 87.195312 63.835938 87.367188 63.988281 C 86.109375 64.867188 85.789062 66.601562 86.65625 67.875 C 86.714844 67.957031 86.78125 68.023438 86.851562 68.097656 C 86.894531 68.183594 86.929688 68.273438 86.992188 68.355469 L 88.925781 71.175781 C 89.628906 72.207031 91.035156 72.46875 92.0625 71.761719 C 93.089844 71.050781 93.355469 69.648438 92.648438 68.617188 L 91.976562 67.632812 L 95.011719 65.558594 L 95.691406 66.542969 C 96.398438 67.570312 97.800781 67.835938 98.828125 67.132812 C 99.851562 66.421875 100.117188 65.015625 99.40625 63.992188 Z M 99.40625 63.992188 "/>
<path d="M 33.660156 43.171875 C 32.570312 42.082031 30.804688 42.082031 29.710938 43.171875 C 28.851562 44.035156 28.679688 45.316406 29.179688 46.355469 C 28.203125 46.011719 27.074219 46.226562 26.289062 47.007812 C 25.628906 47.667969 25.371094 48.582031 25.515625 49.441406 C 25.332031 49.414062 25.152344 49.382812 24.960938 49.382812 C 24.75 49.382812 24.539062 49.414062 24.332031 49.449219 C 24.386719 48.667969 24.132812 47.871094 23.535156 47.273438 C 22.675781 46.414062 21.386719 46.242188 20.347656 46.746094 C 20.691406 45.765625 20.476562 44.636719 19.695312 43.851562 C 18.878906 43.035156 17.679688 42.832031 16.671875 43.242188 C 17.125 42.21875 16.9375 40.984375 16.09375 40.144531 C 15.007812 39.054688 13.238281 39.054688 12.148438 40.144531 L 10.894531 41.40625 C 9.804688 42.496094 9.804688 44.261719 10.894531 45.351562 C 11.714844 46.171875 12.914062 46.375 13.921875 45.964844 C 13.46875 46.988281 13.660156 48.226562 14.492188 49.0625 C 15.355469 49.921875 16.640625 50.09375 17.679688 49.59375 C 17.339844 50.570312 17.550781 51.703125 18.332031 52.484375 C 19.074219 53.226562 20.132812 53.457031 21.078125 53.179688 C 21.078125 53.222656 21.070312 53.253906 21.070312 53.296875 C 21.070312 55.449219 22.816406 57.203125 24.976562 57.203125 C 27.132812 57.203125 28.882812 55.453125 28.882812 53.296875 C 28.882812 53.175781 28.851562 53.058594 28.84375 52.9375 C 29.765625 53.175781 30.785156 52.945312 31.507812 52.222656 C 32.367188 51.359375 32.539062 50.074219 32.039062 49.039062 C 33.015625 49.378906 34.144531 49.167969 34.929688 48.386719 C 36.019531 47.296875 36.019531 45.53125 34.929688 44.441406 Z M 24.972656 54.742188 C 24.164062 54.742188 23.519531 54.097656 23.519531 53.296875 C 23.519531 52.492188 24.167969 51.839844 24.972656 51.839844 C 25.773438 51.839844 26.425781 52.492188 26.425781 53.296875 C 26.425781 54.097656 25.773438 54.742188 24.972656 54.742188 Z M 24.972656 54.742188 "/>
<path d="M 44.132812 21.164062 L 44.132812 19.007812 C 44.132812 17.960938 43.285156 17.109375 42.234375 17.109375 L 40.070312 17.109375 C 39.023438 17.109375 38.179688 17.957031 38.179688 19.007812 L 38.179688 21.164062 C 38.179688 22.210938 39.023438 23.066406 40.070312 23.066406 L 42.230469 23.066406 C 43.277344 23.066406 44.132812 22.210938 44.132812 21.164062 Z M 44.132812 21.164062 "/>
<path d="M 67.304688 19.011719 L 67.304688 21.171875 C 67.304688 22.21875 68.152344 23.070312 69.199219 23.070312 L 71.359375 23.070312 C 72.40625 23.070312 73.253906 22.222656 73.253906 21.171875 L 73.253906 19.011719 C 73.253906 17.964844 72.40625 17.117188 71.359375 17.117188 L 69.199219 17.117188 C 68.152344 17.117188 67.304688 17.964844 67.304688 19.011719 Z M 67.304688 19.011719 "/>
<path d="M 55.347656 50.980469 C 52.640625 50.894531 50.367188 53.007812 50.273438 55.722656 C 50.179688 58.429688 52.296875 60.699219 55.011719 60.792969 C 57.722656 60.882812 59.992188 58.765625 60.082031 56.054688 C 60.179688 53.351562 58.0625 51.082031 55.347656 50.980469 Z M 55.117188 57.75 C 54.089844 57.710938 53.289062 56.847656 53.320312 55.824219 C 53.359375 54.796875 54.21875 53.992188 55.246094 54.027344 C 56.273438 54.0625 57.078125 54.925781 57.042969 55.953125 C 57.007812 56.980469 56.148438 57.789062 55.117188 57.75 Z M 55.117188 57.75 "/>
<path d="M 70.050781 38.414062 L 63.414062 38.414062 C 63.628906 37.808594 63.753906 37.164062 63.753906 36.484375 C 63.753906 35.769531 63.617188 35.082031 63.375 34.449219 L 68.117188 34.449219 C 70.257812 34.449219 71.992188 32.714844 71.992188 30.574219 L 71.992188 26.945312 L 72.488281 26.945312 C 75.054688 26.945312 77.136719 24.863281 77.136719 22.296875 L 77.136719 17.890625 C 77.136719 15.328125 75.054688 13.242188 72.488281 13.242188 L 71.695312 13.242188 C 71.117188 11.820312 69.734375 10.820312 68.113281 10.820312 L 61.304688 10.820312 L 63.476562 4.699219 C 63.539062 4.707031 63.605469 4.71875 63.671875 4.71875 C 64.976562 4.71875 66.027344 3.664062 66.027344 2.363281 C 66.027344 1.058594 64.972656 0.0078125 63.671875 0.0078125 C 62.371094 0.0078125 61.320312 1.058594 61.320312 2.363281 C 61.320312 3.183594 61.742188 3.90625 62.378906 4.324219 L 60.070312 10.820312 L 55.71875 10.820312 L 55.71875 10.8125 L 51.363281 10.8125 L 49.058594 4.320312 C 49.695312 3.898438 50.117188 3.175781 50.117188 2.355469 C 50.117188 1.054688 49.0625 0 47.761719 0 C 46.460938 0 45.402344 1.054688 45.402344 2.355469 C 45.402344 3.65625 46.460938 4.710938 47.761719 4.710938 C 47.828125 4.710938 47.894531 4.699219 47.957031 4.691406 L 50.132812 10.8125 L 43.316406 10.8125 C 41.691406 10.8125 40.308594 11.8125 39.734375 13.230469 L 38.945312 13.230469 C 36.382812 13.230469 34.300781 15.316406 34.300781 17.878906 L 34.300781 22.285156 C 34.300781 24.847656 36.382812 26.929688 38.945312 26.929688 L 39.445312 26.929688 L 39.445312 30.5625 C 39.445312 32.703125 41.179688 34.4375 43.316406 34.4375 L 48.054688 34.4375 C 47.816406 35.070312 47.679688 35.75 47.679688 36.46875 C 47.679688 37.148438 47.804688 37.800781 48.019531 38.40625 L 40.316406 38.40625 C 38.175781 38.40625 36.445312 40.140625 36.445312 42.28125 L 36.445312 71.039062 C 36.445312 73.179688 38.179688 74.914062 40.316406 74.914062 L 70.046875 74.914062 C 72.1875 74.914062 73.917969 73.179688 73.917969 71.039062 L 73.917969 42.28125 C 73.921875 40.144531 72.1875 38.414062 70.050781 38.414062 Z M 75.585938 17.890625 L 75.585938 22.296875 C 75.585938 24.007812 74.195312 25.398438 72.484375 25.398438 L 68.082031 25.398438 C 66.367188 25.398438 64.980469 24.007812 64.980469 22.296875 L 64.980469 17.890625 C 64.980469 16.179688 66.367188 14.789062 68.082031 14.789062 L 72.484375 14.789062 C 74.195312 14.789062 75.585938 16.179688 75.585938 17.890625 Z M 35.847656 22.289062 L 35.847656 17.882812 C 35.847656 16.171875 37.238281 14.785156 38.945312 14.785156 L 43.351562 14.785156 C 45.058594 14.785156 46.445312 16.171875 46.445312 17.882812 L 46.445312 22.289062 C 46.445312 23.992188 45.0625 25.382812 43.351562 25.382812 L 38.945312 25.382812 C 37.242188 25.386719 35.847656 23.996094 35.847656 22.289062 Z M 51.507812 26.015625 L 55.71875 26.015625 L 55.71875 26.023438 L 59.929688 26.023438 C 61.542969 26.023438 62.851562 27.039062 62.851562 28.292969 C 62.851562 29.546875 61.546875 30.566406 59.929688 30.566406 L 55.71875 30.566406 L 55.71875 30.5625 L 51.507812 30.5625 C 49.890625 30.5625 48.582031 29.542969 48.582031 28.289062 C 48.582031 27.035156 49.890625 26.015625 51.507812 26.015625 Z M 65.671875 57.296875 C 65.664062 57.554688 65.445312 57.753906 65.191406 57.746094 L 63.882812 57.703125 C 63.617188 58.941406 63.089844 60.117188 62.335938 61.148438 L 63.226562 62.101562 C 63.402344 62.289062 63.390625 62.582031 63.203125 62.757812 L 61.585938 64.265625 C 61.5 64.351562 61.378906 64.398438 61.253906 64.394531 C 61.128906 64.386719 61.011719 64.335938 60.929688 64.246094 L 60.0625 63.316406 C 58.976562 64.039062 57.742188 64.523438 56.453125 64.714844 L 56.410156 66.007812 C 56.398438 66.265625 56.183594 66.460938 55.929688 66.457031 L 53.71875 66.386719 C 53.460938 66.375 53.261719 66.160156 53.265625 65.90625 L 53.308594 64.652344 C 52.023438 64.398438 50.808594 63.851562 49.746094 63.066406 L 48.878906 63.878906 C 48.6875 64.054688 48.394531 64.046875 48.21875 63.859375 L 46.710938 62.238281 C 46.542969 62.054688 46.554688 61.75 46.738281 61.582031 L 47.585938 60.789062 C 46.851562 59.679688 46.371094 58.417969 46.183594 57.101562 L 45.074219 57.0625 C 44.820312 57.054688 44.617188 56.84375 44.621094 56.582031 L 44.695312 54.371094 C 44.703125 54.117188 44.917969 53.914062 45.175781 53.921875 L 46.289062 53.960938 C 46.566406 52.65625 47.132812 51.425781 47.953125 50.363281 L 47.179688 49.535156 C 47.101562 49.445312 47.054688 49.328125 47.054688 49.203125 C 47.058594 49.078125 47.117188 48.960938 47.203125 48.878906 L 48.820312 47.367188 C 49.011719 47.191406 49.300781 47.203125 49.476562 47.386719 L 50.273438 48.242188 C 51.378906 47.539062 52.621094 47.085938 53.914062 46.914062 L 53.953125 45.78125 C 53.960938 45.523438 54.175781 45.324219 54.429688 45.332031 L 56.644531 45.40625 C 56.898438 45.414062 57.101562 45.632812 57.089844 45.886719 L 57.054688 47.058594 C 58.316406 47.339844 59.507812 47.898438 60.535156 48.683594 L 61.445312 47.835938 C 61.527344 47.753906 61.648438 47.707031 61.773438 47.710938 C 61.898438 47.714844 62.015625 47.769531 62.101562 47.859375 L 63.605469 49.476562 C 63.785156 49.664062 63.773438 49.960938 63.585938 50.132812 L 62.65625 50.996094 C 63.347656 52.085938 63.800781 53.304688 63.980469 54.566406 L 65.289062 54.613281 C 65.542969 54.617188 65.746094 54.835938 65.742188 55.089844 Z M 65.671875 57.296875 "/>
</g>
</svg>
