<svg xmlns="http://www.w3.org/2000/svg" width="340" height="340" viewBox="0 0 340 340">
  <g id="favicon" transform="translate(-50.5 -52.5)">
    <g id="Rectangle_27" data-name="Rectangle 27" transform="translate(50.5 52.5)" fill="none" stroke="#3b82f6" stroke-width="20">
      <rect width="340" height="340" rx="25" stroke="none"/>
      <rect x="10" y="10" width="320" height="320" rx="15" fill="none"/>
    </g>
    <path id="Intersection_1" data-name="Intersection 1" d="M-2125.1,1115.521a49.466,49.466,0,0,1-20.2-16.236,37.723,37.723,0,0,1-7.324-22.278h33.448q.487,9.4,6.958,14.4t17.334,5q10.132,0,15.32-3.845a11.966,11.966,0,0,0,5.188-10.071q0-6.471-6.409-10.193t-20.569-6.653q-47.119-9.887-47.118-40.038,0-17.578,14.587-29.358t38.146-11.78q25.147,0,40.223,11.84t15.075,30.762h-35.278a17.069,17.069,0,0,0-4.882-12.512q-4.883-4.944-15.259-4.944-8.911,0-13.794,4.028a12.716,12.716,0,0,0-4.883,10.255q0,5.859,5.554,9.46t18.738,6.226a153,153,0,0,1,22.217,5.92q27.954,10.253,27.954,35.522,0,18.067-15.5,29.236t-40.039,11.17Q-2112.225,1121.441-2125.1,1115.521Zm-147.338-5.31a36.116,36.116,0,0,1-12.757-28.32q0-21,15.564-32.227t44.983-11.353h16.235v-7.568q0-9.156-4.7-14.648t-14.832-5.493q-8.911,0-13.977,4.272t-5.066,11.719h-35.278a35.437,35.437,0,0,1,7.08-21.241q7.079-9.765,20.02-15.32a72.962,72.962,0,0,1,29.053-5.554q24.413,0,38.757,12.268t14.343,34.485v57.251q.123,18.8,5.249,28.443V1119h-35.644a39.193,39.193,0,0,1-3.54-11.84q-12.817,14.282-33.325,14.282Q-2259.686,1121.441-2272.442,1110.211Zm22.644-32.959-.123,2.074a14.124,14.124,0,0,0,4.639,10.865q4.638,4.271,12.7,4.272a30.386,30.386,0,0,0,14.4-3.479,22.844,22.844,0,0,0,9.765-9.338v-22.7H-2221.6Q-2248.09,1058.942-2249.8,1077.252Z" transform="translate(2382.699 -829.979)" fill="#3b82f6"/>
  </g>
</svg>
